<svg width="134" height="22" viewBox="0 0 134 22" fill="none" xmlns="http://www.w3.org/2000/svg">
<path fill-rule="evenodd" clip-rule="evenodd" d="M0 13.3222C0 17.643 2.42081 22 7.84171 22C13.2576 22 15.6831 17.643 15.6831 13.3222C15.6831 10.3711 14.6884 6.97281 13.0283 4.22731C11.4136 1.57662 9.47356 0 7.84171 0C6.20487 0 4.26429 1.57662 2.6637 4.22731C0.995324 6.97281 0 10.3711 0 13.3222ZM55.6757 6.4822H50.1865V1.17859H67.0459V6.4822H61.557L61.5567 20.8214H55.6755L55.6757 6.4822ZM79.5914 6.4822H88.2179V1.17859H79.5922C71.6664 1.17859 67.4351 5.12678 67.4351 11C67.4351 16.8732 71.6664 20.8214 79.5922 20.8214H88.2179V15.5178H79.5914C75.9241 15.5178 73.5121 14.2042 73.5121 11C73.5121 7.79577 75.9241 6.4822 79.5914 6.4822ZM35.0894 12.9031L38.2247 1.17859H48.6173V20.8214H42.7363V4.83408L38.461 20.8214H31.7178L27.4452 4.84405V20.8214H21.564V1.17859H31.954L35.0894 12.9031ZM98.943 6.87236H96.8691V8.79379H98.943C99.4683 8.79379 99.7812 8.52353 99.7812 8.02516V7.66926C99.7812 7.15675 99.5115 6.87236 98.943 6.87236ZM99.4684 11.0002H94.0986V1.17847H101.997V3.52731H96.8691V4.80818H99.4684C101.642 4.80818 102.693 5.89002 102.693 7.79732C102.693 9.8044 101.642 11.0002 99.4684 11.0002ZM107.991 3.35641L109.085 6.98585H106.897L107.991 3.35641ZM113.29 11L110.264 1.17859H106.144L103.119 11H105.704L106.258 9.12099H109.724L110.292 11H113.29ZM120.293 11V7.19955H117.125V11H114.283V1.17859H117.125V4.77975H120.293V1.17859H123.134V11H120.293ZM128.176 4.77975H127.678V1.17859H124.837V11H127.678V7.19955H128.09L130.718 11H134L130.448 5.86159L133.716 1.17859H130.718L128.176 4.77975Z" fill="#E30611"/>
</svg>
