<svg width="40" height="40" viewBox="0 0 40 40" fill="none" xmlns="http://www.w3.org/2000/svg">
<path d="M38.5889 39.6921H38.5133V39.8939H38.4755V39.6921H38.4V39.6545H38.5923L38.5889 39.6921ZM38.8841 39.8939H38.8464V39.6989L38.7777 39.87H38.7365L38.6678 39.6989V39.8939H38.6301V39.6545H38.6884L38.7571 39.8255L38.8258 39.6545H38.8841V39.8939ZM2.71775 39.8939H2.1924V33.9079H2.71775V39.8939ZM6.71105 33.9079C7.17058 33.9011 7.62797 33.9716 8.0639 34.1166C8.4455 34.2422 8.79641 34.4461 9.09399 34.7152C9.37739 34.9785 9.59899 35.3008 9.74295 35.6592C10.0461 36.4595 10.0461 37.3424 9.74295 38.1426C9.59909 38.5011 9.37748 38.8234 9.09399 39.0867C8.79641 39.3558 8.4455 39.5597 8.0639 39.6853C7.62797 39.8302 7.17058 39.9008 6.71105 39.8939H4.51696V33.9079H6.71105ZM5.04231 34.4039V39.3979H6.71105C7.10525 39.4049 7.49775 39.3448 7.87162 39.2201C8.18566 39.1137 8.47354 38.9424 8.7163 38.7172C8.94673 38.4975 9.12401 38.2285 9.23477 37.9305C9.4674 37.266 9.4674 36.5427 9.23477 35.8782C9.12383 35.5793 8.94661 35.3092 8.7163 35.088C8.47417 34.862 8.1861 34.6905 7.87162 34.5852C7.49844 34.4629 7.10728 34.4039 6.71448 34.4107L5.04231 34.4039ZM16.3733 33.8395C16.6253 33.8388 16.8765 33.8675 17.1218 33.925C17.3598 33.9793 17.5904 34.062 17.8085 34.1713C18.0143 34.2754 18.2059 34.4053 18.3785 34.5578C18.5476 34.7074 18.6944 34.8801 18.8146 35.0709L18.3785 35.3617C18.2754 35.2047 18.1519 35.0621 18.0111 34.9375C17.8695 34.8114 17.7126 34.7034 17.5441 34.616C17.37 34.5267 17.1855 34.4589 16.9948 34.4142C16.7958 34.3663 16.5917 34.3422 16.387 34.3423C16.0451 34.3395 15.7059 34.4022 15.3878 34.527C15.0873 34.6442 14.814 34.8211 14.5844 35.047C14.3534 35.2777 14.1713 35.5522 14.0487 35.8542C13.7879 36.5255 13.7879 37.2695 14.0487 37.9408C14.1712 38.2429 14.3533 38.5174 14.5844 38.748C14.814 38.9739 15.0873 39.1508 15.3878 39.268C15.7059 39.3928 16.0451 39.4555 16.387 39.4527C16.5904 39.4533 16.7932 39.4303 16.9913 39.3843C17.3734 39.3007 17.7278 39.1218 18.0214 38.8643C18.163 38.7393 18.2866 38.5954 18.3888 38.4368L18.818 38.748C18.6932 38.9343 18.5443 39.1034 18.3751 39.2508C18.2028 39.4004 18.0125 39.5279 17.8085 39.6305C17.5972 39.7381 17.3735 39.8196 17.1424 39.8734C16.4891 40.0216 15.8063 39.9716 15.1818 39.7297C14.8181 39.5864 14.4866 39.3725 14.2067 39.1003C13.928 38.8245 13.7084 38.4952 13.5611 38.1323C13.2495 37.3372 13.2495 36.4544 13.5611 35.6592C13.7084 35.2964 13.928 34.9671 14.2067 34.6912C14.4866 34.4191 14.8181 34.2052 15.1818 34.0618C15.5657 33.912 15.9747 33.8365 16.387 33.8395H16.3733ZM20.5829 36.576C20.6598 36.4491 20.7546 36.3339 20.8645 36.2339C20.9674 36.1398 21.0829 36.0603 21.2078 35.9979C21.3335 35.9368 21.4661 35.8909 21.6027 35.8611C21.7381 35.8316 21.8762 35.8167 22.0147 35.8166C22.2485 35.8142 22.4809 35.8524 22.7015 35.9295C22.9012 35.9991 23.0846 36.1085 23.2405 36.251C23.3912 36.3937 23.5084 36.5677 23.5839 36.7607C23.6698 36.9784 23.7118 37.2109 23.7075 37.4448V39.911H23.2165V37.5953C23.2191 37.4093 23.1901 37.2243 23.1307 37.048C23.0783 36.8927 22.9915 36.7513 22.8766 36.6341C22.7613 36.5185 22.6217 36.4297 22.468 36.3742C22.2917 36.3118 22.1056 36.2816 21.9186 36.2852C21.7379 36.2839 21.5585 36.3163 21.3898 36.381C21.2297 36.4424 21.0837 36.5355 20.9606 36.6546C20.837 36.7754 20.7389 36.9196 20.6722 37.0788C20.6003 37.2499 20.5641 37.4338 20.5657 37.6192V39.911H20.0782V33.754H20.5657L20.5829 36.576ZM26.9145 35.8166C27.1719 35.8141 27.4268 35.8654 27.6631 35.9671C27.8896 36.0656 28.0931 36.21 28.2605 36.3913C28.4336 36.5806 28.5688 36.8012 28.6588 37.0412C28.7588 37.3058 28.81 37.5862 28.8099 37.8689C28.8099 37.9066 28.8099 37.9408 28.8099 37.975C28.8099 38.0092 28.8099 38.04 28.8099 38.0708H25.4243C25.4375 38.2863 25.4911 38.4974 25.5823 38.6933C25.6648 38.8694 25.7815 39.0275 25.9256 39.1585C26.0666 39.2849 26.2311 39.3825 26.4098 39.4458C26.5959 39.5123 26.7923 39.5459 26.9901 39.545C27.2512 39.5494 27.5102 39.4969 27.7489 39.3911C27.9734 39.287 28.1779 39.1446 28.3532 38.9704L28.6142 39.3124C28.4954 39.4331 28.3642 39.5408 28.2227 39.634C28.0944 39.7169 27.9574 39.7857 27.8141 39.8392C27.6776 39.8895 27.536 39.925 27.3918 39.9452C27.2485 39.9653 27.1039 39.9756 26.9592 39.976C26.6806 39.9793 26.4042 39.9281 26.1454 39.8255C25.9045 39.7294 25.6859 39.585 25.5033 39.4014C25.3204 39.2143 25.1779 38.992 25.0844 38.748C24.9813 38.4795 24.93 38.194 24.9333 37.9066C24.93 37.6213 24.9813 37.3381 25.0844 37.0719C25.1745 36.8236 25.3134 36.5957 25.493 36.4015C25.673 36.2162 25.8892 36.0695 26.1282 35.9705C26.3809 35.8621 26.6531 35.8062 26.9282 35.8063L26.9145 35.8166ZM26.9145 36.2476C26.7217 36.2459 26.5303 36.2819 26.3514 36.3536C26.1843 36.4212 26.0316 36.5198 25.9016 36.6444C25.7704 36.7713 25.6634 36.9208 25.5857 37.0856C25.5017 37.2636 25.4483 37.4544 25.4278 37.65H28.3154C28.3013 37.453 28.2537 37.2599 28.1747 37.0788C28.1025 36.9142 28 36.7645 27.8725 36.6375C27.7465 36.5128 27.597 36.4141 27.4326 36.3472C27.2682 36.2803 27.0921 36.2464 26.9145 36.2476ZM31.804 35.8166C32.0901 35.8141 32.3738 35.8687 32.6384 35.9774C32.8896 36.0808 33.1139 36.2399 33.2942 36.4426L32.9783 36.7846C32.8261 36.6313 32.6468 36.5073 32.4495 36.4186C32.2426 36.3296 32.0191 36.2853 31.7937 36.2886C31.5826 36.2876 31.3734 36.3295 31.1791 36.4118C30.993 36.4917 30.8248 36.608 30.6846 36.7538C30.5366 36.9 30.4198 37.0746 30.3413 37.2669C30.1837 37.6848 30.1837 38.1454 30.3413 38.5633C30.4142 38.7523 30.5248 38.9246 30.6665 39.0698C30.8081 39.215 30.9778 39.3301 31.1653 39.4082C31.3596 39.4907 31.5688 39.5327 31.78 39.5313C32.0082 39.5339 32.2342 39.4872 32.4427 39.3945C32.6413 39.3061 32.8226 39.1833 32.9783 39.0319L33.2839 39.374C33.1027 39.5757 32.8787 39.7346 32.6281 39.8392C32.3647 39.9478 32.0821 40.0025 31.7971 39.9999C31.5113 40.0034 31.2276 39.9499 30.9628 39.8426C30.7176 39.7433 30.4953 39.5954 30.3093 39.4078C30.1234 39.2202 29.9777 38.9969 29.8812 38.7514C29.6781 38.2205 29.6781 37.6337 29.8812 37.1027C29.9771 36.8565 30.1226 36.6325 30.3086 36.4442C30.4945 36.256 30.7172 36.1076 30.9628 36.0082C31.2286 35.8837 31.5173 35.815 31.8109 35.8063L31.804 35.8166ZM34.9389 37.5782H35.5947L37.3115 35.8679H37.9296L36.0068 37.7663L37.9639 39.8905H37.3424L35.6256 38.0058H34.9698V39.8905H34.4548V33.7335H34.9423L34.9389 37.5782ZM7.27417 30.8328V28.7805C7.28617 28.6079 7.26113 28.4347 7.20068 28.2725C7.14024 28.1103 7.04578 27.9628 6.92363 27.8398C6.80147 27.7168 6.65441 27.6212 6.49223 27.5593C6.33006 27.4973 6.1565 27.4705 5.98312 27.4807C5.75617 27.4659 5.52939 27.512 5.32646 27.6143C5.12352 27.7166 4.95188 27.8712 4.82943 28.0622C4.71781 27.877 4.5581 27.7252 4.36714 27.6229C4.17618 27.5205 3.96104 27.4714 3.7444 27.4807C3.55555 27.4712 3.36749 27.511 3.19885 27.5962C3.03021 27.6814 2.88685 27.809 2.78298 27.9664V27.5628H2.06879V30.8328H2.78985V29.0199C2.77451 28.9081 2.78416 28.7943 2.81811 28.6866C2.85206 28.5789 2.90947 28.4801 2.98623 28.3971C3.06299 28.314 3.15722 28.249 3.26216 28.2064C3.36711 28.1639 3.48019 28.145 3.59332 28.1511C4.06716 28.1511 4.30751 28.459 4.30751 29.0131V30.8328H5.02857V29.0199C5.01386 28.9082 5.02395 28.7946 5.05813 28.6872C5.09231 28.5798 5.14974 28.4812 5.22638 28.3984C5.30301 28.3155 5.39697 28.2504 5.50163 28.2077C5.60628 28.165 5.71907 28.1456 5.83204 28.1511C6.31961 28.1511 6.5531 28.459 6.5531 29.0131V30.8328H7.27417ZM17.939 27.5525H16.7716V26.5605H16.0505V27.5525H15.3844V28.1922H16.0505V29.6835C16.0505 30.4429 16.3458 30.8944 17.1905 30.8944C17.5061 30.8955 17.8155 30.8077 18.0832 30.6413L17.8772 30.0324C17.6903 30.1548 17.4753 30.2277 17.2523 30.2445C16.9089 30.2445 16.7784 30.0256 16.7784 29.6972V28.1922H17.939V27.5525ZM24.0303 27.4704C23.8561 27.4653 23.6839 27.5071 23.5316 27.5914C23.3793 27.6757 23.2526 27.7993 23.165 27.9493V27.5525H22.4577V30.8226H23.1719V28.9891C23.1719 28.4487 23.4053 28.1477 23.8586 28.1477C24.0113 28.1456 24.163 28.1735 24.305 28.2298L24.5247 27.5457C24.3616 27.4875 24.1898 27.4575 24.0165 27.4567L24.0303 27.4704ZM14.8213 27.8125C14.417 27.573 13.9522 27.4543 13.4822 27.4704C12.6512 27.4704 12.1087 27.8672 12.1087 28.5171C12.1087 29.0507 12.507 29.3791 13.2418 29.4817L13.5852 29.5296C13.9766 29.5843 14.162 29.6869 14.162 29.8717C14.162 30.1248 13.9011 30.2684 13.4135 30.2684C13.0213 30.2798 12.6367 30.1593 12.3216 29.9264L11.9782 30.4805C12.3943 30.7699 12.8926 30.9186 13.3998 30.9047C14.3474 30.9047 14.8968 30.46 14.8968 29.8374C14.8968 29.2149 14.4642 28.9618 13.75 28.8592L13.4066 28.8113C13.0976 28.7702 12.8504 28.7087 12.8504 28.4897C12.8504 28.2708 13.0839 28.1066 13.4753 28.1066C13.8371 28.1108 14.1918 28.2074 14.5054 28.3871L14.8213 27.8125ZM33.95 27.4704C33.7759 27.4653 33.6036 27.5071 33.4513 27.5914C33.299 27.6757 33.1724 27.7993 33.0847 27.9493V27.5525H32.3774V30.8226H33.0916V28.9891C33.0916 28.4487 33.3251 28.1477 33.7783 28.1477C33.9311 28.1456 34.0828 28.1735 34.2247 28.2298L34.4445 27.5457C34.2814 27.4875 34.1095 27.4575 33.9363 27.4567L33.95 27.4704ZM24.7479 29.1807C24.7394 29.4105 24.7792 29.6395 24.8646 29.8531C24.9501 30.0668 25.0794 30.2603 25.2442 30.4212C25.409 30.5822 25.6058 30.7072 25.8219 30.788C26.0379 30.8689 26.2686 30.904 26.499 30.891C26.9279 30.9127 27.3493 30.7736 27.6802 30.501L27.3369 29.9264C27.09 30.1139 26.7889 30.2171 26.4784 30.2205C26.2145 30.1993 25.9682 30.0798 25.7886 29.8858C25.609 29.6919 25.5093 29.4377 25.5093 29.1739C25.5093 28.91 25.609 28.6558 25.7886 28.4619C25.9682 28.2679 26.2145 28.1484 26.4784 28.1272C26.7889 28.1306 27.09 28.2338 27.3369 28.4213L27.6802 27.8467C27.3493 27.5741 26.9279 27.435 26.499 27.4567C26.2686 27.4437 26.0379 27.4788 25.8219 27.5597C25.6058 27.6406 25.409 27.7655 25.2442 27.9265C25.0794 28.0875 24.9501 28.2809 24.8646 28.4946C24.7792 28.7082 24.7394 28.9372 24.7479 29.167V29.1807ZM31.4366 29.1807V27.5457H30.7224V27.9424C30.6011 27.787 30.4445 27.6625 30.2654 27.5792C30.0863 27.496 29.8898 27.4563 29.6923 27.4636C29.237 27.4636 28.8003 27.6438 28.4783 27.9645C28.1564 28.2852 27.9755 28.7203 27.9755 29.1739C27.9755 29.6275 28.1564 30.0625 28.4783 30.3832C28.8003 30.704 29.237 30.8841 29.6923 30.8841C29.8898 30.8914 30.0863 30.8518 30.2654 30.7685C30.4445 30.6852 30.6011 30.5607 30.7224 30.4053V30.802H31.4366V29.1807ZM28.779 29.1807C28.7904 28.9882 28.858 28.8032 28.9736 28.6486C29.0892 28.4939 29.2476 28.3763 29.4295 28.3102C29.6113 28.2441 29.8086 28.2324 29.997 28.2766C30.1854 28.3208 30.3567 28.4189 30.4898 28.5589C30.623 28.6988 30.7121 28.8745 30.7463 29.0643C30.7805 29.2541 30.7582 29.4497 30.6822 29.627C30.6062 29.8044 30.4798 29.9557 30.3186 30.0623C30.1573 30.169 29.9683 30.2264 29.7747 30.2274C29.6388 30.2291 29.5039 30.2028 29.3787 30.1501C29.2535 30.0973 29.1405 30.0194 29.047 29.9211C28.9535 29.8228 28.8814 29.7062 28.8353 29.5788C28.7891 29.4514 28.77 29.3159 28.779 29.1807ZM20.1606 27.4704C19.7052 27.4768 19.2711 27.663 18.9536 27.9883C18.6362 28.3135 18.4614 28.751 18.4678 29.2046C18.4742 29.6582 18.6612 30.0907 18.9876 30.407C19.3141 30.7232 19.7533 30.8973 20.2086 30.891C20.6986 30.9082 21.1777 30.745 21.5546 30.4326L21.2113 29.9059C20.9401 30.1225 20.6042 30.2428 20.2567 30.2479C20.0206 30.2681 19.7859 30.1958 19.6026 30.0464C19.4192 29.8969 19.3015 29.682 19.2747 29.4475H21.716C21.716 29.3586 21.716 29.2696 21.716 29.1739C21.716 28.1477 21.0773 27.4636 20.1571 27.4636L20.1606 27.4704ZM20.1606 28.1066C20.2674 28.1044 20.3737 28.1231 20.4733 28.1618C20.5729 28.2004 20.6639 28.2582 20.7411 28.3319C20.8182 28.4056 20.8801 28.4937 20.923 28.5912C20.966 28.6888 20.9893 28.7937 20.9915 28.9002H19.2747C19.2871 28.6806 19.3854 28.4746 19.5484 28.3263C19.7114 28.178 19.9262 28.0991 20.1468 28.1066H20.1606ZM38.0738 29.1875V26.239H37.3596V27.9493C37.2383 27.7938 37.0817 27.6693 36.9026 27.5861C36.7234 27.5028 36.527 27.4632 36.3295 27.4704C35.8742 27.4704 35.4375 27.6506 35.1156 27.9713C34.7936 28.2921 34.6127 28.7271 34.6127 29.1807C34.6127 29.6343 34.7936 30.0693 35.1156 30.3901C35.4375 30.7108 35.8742 30.891 36.3295 30.891C36.527 30.8982 36.7234 30.8586 36.9026 30.7753C37.0817 30.6921 37.2383 30.5676 37.3596 30.4121V30.8089H38.0738V29.1875ZM35.4162 29.1875C35.4276 28.9951 35.4952 28.8101 35.6108 28.6554C35.7264 28.5007 35.8848 28.3831 36.0667 28.317C36.2485 28.251 36.4458 28.2393 36.6342 28.2835C36.8226 28.3276 36.9939 28.4258 37.127 28.5657C37.2602 28.7057 37.3493 28.8813 37.3835 29.0711C37.4177 29.2609 37.3954 29.4565 37.3194 29.6339C37.2434 29.8112 37.117 29.9625 36.9558 30.0692C36.7945 30.1759 36.6055 30.2332 36.4119 30.2342C36.276 30.2359 36.1411 30.2096 36.0159 30.1569C35.8907 30.1042 35.7777 30.0262 35.6842 29.9279C35.5907 29.8296 35.5186 29.7131 35.4724 29.5856C35.4263 29.4582 35.4072 29.3227 35.4162 29.1875ZM11.3018 29.1875V27.5525H10.5876V27.9493C10.4663 27.7938 10.3097 27.6693 10.1306 27.5861C9.95145 27.5028 9.75504 27.4632 9.55753 27.4704C9.1022 27.4704 8.66553 27.6506 8.34356 27.9713C8.0216 28.2921 7.84071 28.7271 7.84071 29.1807C7.84071 29.6343 8.0216 30.0693 8.34356 30.3901C8.66553 30.7108 9.1022 30.891 9.55753 30.891C9.75504 30.8982 9.95145 30.8586 10.1306 30.7753C10.3097 30.6921 10.4663 30.5676 10.5876 30.4121V30.8089H11.3018V29.1875ZM8.64418 29.1875C8.65557 28.9951 8.72322 28.8101 8.8388 28.6554C8.95438 28.5007 9.11283 28.3831 9.29466 28.317C9.47649 28.251 9.67376 28.2393 9.86216 28.2835C10.0506 28.3276 10.2219 28.4258 10.355 28.5657C10.4882 28.7057 10.5773 28.8813 10.6115 29.0711C10.6457 29.2609 10.6234 29.4565 10.5474 29.6339C10.4714 29.8112 10.345 29.9625 10.1838 30.0692C10.0225 30.1759 9.83348 30.2332 9.63993 30.2342C9.50398 30.2359 9.36915 30.2096 9.2439 30.1569C9.11866 30.1042 9.00573 30.0262 8.9122 29.9279C8.81868 29.8296 8.74658 29.7131 8.70045 29.5856C8.65433 29.4582 8.63517 29.3227 8.64418 29.1875ZM39.2618 30.3471C39.3065 30.3466 39.3508 30.3547 39.3923 30.3711C39.4318 30.3871 39.4679 30.4103 39.4988 30.4395C39.5289 30.469 39.5534 30.5037 39.5709 30.5421C39.5883 30.582 39.5972 30.6251 39.5972 30.6686C39.5972 30.7122 39.5883 30.7553 39.5709 30.7952C39.5534 30.8335 39.5289 30.8683 39.4988 30.8978C39.4679 30.927 39.4318 30.9502 39.3923 30.9662C39.3512 30.9843 39.3068 30.9936 39.2618 30.9936C39.1968 30.9931 39.1331 30.9742 39.0784 30.9391C39.0237 30.904 38.9802 30.854 38.9528 30.7952C38.9356 30.7552 38.9268 30.7122 38.9268 30.6686C38.9268 30.6251 38.9356 30.5821 38.9528 30.5421C38.9703 30.5037 38.9948 30.469 39.0249 30.4395C39.0558 30.4103 39.0919 30.3871 39.1314 30.3711C39.1729 30.3547 39.2172 30.3466 39.2618 30.3471ZM39.2618 30.9252C39.2961 30.9254 39.33 30.9184 39.3614 30.9047C39.391 30.8915 39.4178 30.873 39.4404 30.8499C39.4833 30.8032 39.5072 30.7422 39.5072 30.6789C39.5072 30.6156 39.4833 30.5546 39.4404 30.5079C39.4178 30.4848 39.391 30.4662 39.3614 30.4531C39.33 30.4395 39.2961 30.4325 39.2618 30.4326C39.2276 30.4328 39.1938 30.4398 39.1623 30.4531C39.1314 30.4657 39.1034 30.4844 39.0799 30.5079C39.0369 30.5546 39.0131 30.6156 39.0131 30.6789C39.0131 30.7422 39.0369 30.8032 39.0799 30.8499C39.1035 30.8734 39.1315 30.892 39.1623 30.9047C39.1935 30.9193 39.2274 30.9274 39.2618 30.9286V30.9252ZM39.2824 30.5181C39.3145 30.5166 39.3461 30.5263 39.3717 30.5455C39.3822 30.5542 39.3905 30.5652 39.3959 30.5777C39.4013 30.5902 39.4036 30.6038 39.4026 30.6173C39.4031 30.6287 39.4012 30.64 39.3971 30.6506C39.393 30.6612 39.3867 30.6709 39.3786 30.6789C39.3587 30.6969 39.3333 30.7077 39.3065 30.7097L39.4061 30.8226H39.3271L39.2344 30.7097H39.2035V30.8226H39.1382V30.5216L39.2824 30.5181ZM39.2069 30.5763V30.6584H39.2824C39.2959 30.6624 39.3102 30.6624 39.3236 30.6584C39.3261 30.6536 39.3273 30.6483 39.3273 30.643C39.3273 30.6376 39.3261 30.6324 39.3236 30.6276C39.3261 30.6228 39.3273 30.6176 39.3273 30.6122C39.3273 30.6069 39.3261 30.6016 39.3236 30.5968C39.3102 30.5928 39.2959 30.5928 39.2824 30.5968L39.2069 30.5763Z" fill="black"/>
<path d="M25.4071 2.63354H14.5912V21.9974H25.4071V2.63354Z" fill="#FF5F00"/>
<path d="M15.2778 12.3175C15.2758 10.4524 15.6999 8.61125 16.5178 6.93352C17.3358 5.2558 18.5263 3.78548 19.9991 2.63391C18.1755 1.20624 15.9855 0.318453 13.6795 0.072022C11.3734 -0.174409 9.04423 0.230455 6.9582 1.24034C4.87217 2.25023 3.11342 3.82439 1.88297 5.78292C0.652522 7.74145 0 10.0053 0 12.3158C0 14.6263 0.652522 16.8902 1.88297 18.8487C3.11342 20.8073 4.87217 22.3814 6.9582 23.3913C9.04423 24.4012 11.3734 24.8061 13.6795 24.5596C15.9855 24.3132 18.1755 23.4254 19.9991 21.9977C18.5267 20.8465 17.3366 19.3768 16.5186 17.6997C15.7006 16.0226 15.2764 14.1821 15.2778 12.3175Z" fill="#EB001B"/>
<path d="M38.8188 19.9484V19.5516H38.9801V19.4695H38.5715V19.5516H38.7329V19.9484H38.8188ZM39.6119 19.9484V19.4695H39.4883L39.3441 19.8115L39.1999 19.4695H39.0728V19.9484H39.1621V19.5892L39.296 19.9005H39.3887L39.5226 19.5892V19.9518L39.6119 19.9484Z" fill="#F79E1B"/>
<path d="M40.0001 12.3172C40 14.6278 39.3473 16.8919 38.1167 18.8505C36.886 20.8091 35.127 22.3832 33.0407 23.3929C30.9544 24.4027 28.625 24.8073 26.3188 24.5605C24.0126 24.3137 21.8226 23.4255 19.9992 21.9974C21.4709 20.8451 22.6608 19.375 23.4789 17.6978C24.2971 16.0206 24.7222 14.1802 24.7222 12.3155C24.7222 10.4507 24.2971 8.61034 23.4789 6.93316C22.6608 5.25597 21.4709 3.78579 19.9992 2.63355C21.8226 1.20544 24.0126 0.317226 26.3188 0.0704406C28.625 -0.176344 30.9544 0.228256 33.0407 1.238C35.127 2.24774 36.886 3.82188 38.1167 5.78048C39.3473 7.73908 40 10.0031 40.0001 12.3138V12.3172Z" fill="#F79E1B"/>
</svg>
