<svg width="80" height="39" viewBox="0 0 80 39" fill="none" xmlns="http://www.w3.org/2000/svg">
<path fill-rule="evenodd" clip-rule="evenodd" d="M42.4199 24.5542H41.9538L38.856 31.3047H39.3673L40.2094 29.4346H44.1192L44.9613 31.3047H45.5026L42.4199 24.5542ZM42.1793 25.1015L43.9237 28.9785H40.435L42.1793 25.1015Z" fill="#006848"/>
<path d="M45.9841 28.8721V28.8873C45.9841 30.2556 47.0517 31.4263 48.4352 31.4415C49.3224 31.4415 49.9089 31.031 50.4051 30.4685L50.0893 30.1796C49.6833 30.6357 49.1419 30.9854 48.4653 30.9854C47.3675 30.9854 46.4803 30.058 46.4803 28.8721V28.8569C46.4803 27.671 47.3374 26.7588 48.4352 26.7588C49.157 26.7588 49.6231 27.1389 50.0442 27.5646L50.375 27.2149C49.9239 26.7284 49.3525 26.3178 48.4502 26.3178C47.0517 26.3178 45.9841 27.5037 45.9841 28.8721Z" fill="#006848"/>
<path d="M50.9617 28.8873V28.8721C50.9617 27.5037 52.0294 26.3178 53.4279 26.3178C54.3301 26.3178 54.9016 26.7284 55.3527 27.2149L55.0219 27.5646C54.6008 27.1389 54.1347 26.7588 53.4129 26.7588C52.3151 26.7588 51.458 27.671 51.458 28.8569V28.8721C51.458 30.058 52.3452 30.9854 53.4429 30.9854C54.1196 30.9854 54.661 30.6357 55.067 30.1796L55.3828 30.4685C54.8865 31.031 54.3001 31.4415 53.4129 31.4415C52.0444 31.4263 50.9617 30.2556 50.9617 28.8873Z" fill="#006848"/>
<path fill-rule="evenodd" clip-rule="evenodd" d="M55.9688 28.8569V28.8721C55.9688 30.4077 57.0665 31.4263 58.3146 31.4263C59.2319 31.4263 59.8184 31.0462 60.3146 30.5141L59.9988 30.2252C59.5928 30.6509 59.0966 30.9854 58.3447 30.9854C57.4124 30.9854 56.5252 30.286 56.45 29.0697H60.45C60.465 28.9937 60.465 28.9633 60.465 28.8721C60.465 27.4277 59.6079 26.3178 58.2545 26.3178C56.9462 26.3178 55.9688 27.4581 55.9688 28.8569ZM58.2545 26.7284C59.3522 26.7284 59.9086 27.6406 59.9838 28.6288H56.4801C56.5552 27.5342 57.2921 26.7284 58.2545 26.7284Z" fill="#006848"/>
<path fill-rule="evenodd" clip-rule="evenodd" d="M61.6081 26.4243H62.0742V27.519C62.4802 26.8804 63.1118 26.3178 64.0592 26.3178C65.2171 26.3178 66.405 27.2605 66.405 28.8569V28.8721C66.405 30.4533 65.2171 31.4263 64.0592 31.4263C63.0968 31.4263 62.4802 30.879 62.0742 30.2556V32.8403H61.6081V26.4243ZM65.8938 28.8873V28.8721C65.8938 27.595 65.0216 26.774 63.999 26.774C62.9915 26.774 62.0291 27.6254 62.0291 28.8721V28.8873C62.0291 30.134 62.9915 30.9854 63.999 30.9854C65.0667 30.9702 65.8938 30.1796 65.8938 28.8873Z" fill="#006848"/>
<path d="M67.6677 26.8652V30.058C67.6677 30.9854 68.2542 31.3959 69.006 31.3959C69.3068 31.3959 69.5324 31.3503 69.788 31.2287V30.7878C69.5173 30.9094 69.3218 30.955 69.0812 30.955C68.5098 30.955 68.1188 30.7117 68.1188 30.0124V26.8652H69.8331V26.4395H68.1339V24.8735H67.6677V26.4395H66.9609V26.8652H67.6677Z" fill="#006848"/>
<path d="M47.0224 4.51554C43.9998 1.71803 39.9998 0 35.5788 0H0C0.0601501 1.30753 0.255638 2.56945 0.541351 3.80096C0.601501 4.08983 0.661652 4.3635 0.751877 4.63717C0.781952 4.7436 0.812027 4.86523 0.842102 4.97165C3.59397 13.8051 11.7594 20.2059 21.3984 20.2059H52.2705C52.4509 19.2176 52.5562 18.2142 52.5562 17.1651C52.5411 12.1479 50.4058 7.66273 47.0224 4.51554Z" fill="#006848"/>
<path d="M79.6687 38.2832H48.6162C43.8944 38.2832 39.3982 36.778 35.6237 33.9349C31.9696 31.183 29.2177 27.2604 27.8493 22.8969C27.8193 22.7753 27.7892 22.6689 27.7591 22.5624C27.699 22.38 27.6538 22.1824 27.6087 21.9999C27.5937 21.9087 27.5636 21.8175 27.5486 21.7414C27.2478 20.4491 27.0674 19.1568 27.0072 17.8949L26.9922 17.6516H62.7966C67.0973 17.6516 71.2176 19.2784 74.4055 22.228C77.9544 25.5272 79.9995 30.1948 79.9995 35.0296C79.9995 36.0178 79.9093 37.0213 79.7138 38.1008L79.6687 38.2832ZM27.4584 18.0773C27.5335 19.248 27.714 20.4339 27.9847 21.6046C27.9997 21.6958 28.0298 21.7719 28.0448 21.8631C28.0899 22.0455 28.135 22.228 28.1802 22.4104C28.2102 22.532 28.2403 22.6385 28.2704 22.7449C29.6087 27.0172 32.3004 30.8637 35.8794 33.5548C39.5786 36.3371 43.9846 37.8119 48.6011 37.8119H79.2777C79.4431 36.8236 79.5183 35.9114 79.5183 34.9992C79.5183 30.286 77.5333 25.74 74.0747 22.532C70.977 19.6585 66.962 18.0773 62.7665 18.0773H27.4584Z" fill="#006848"/>
<path d="M36.6165 9.9281H29.9699V10.3386V13.425H32.0751V11.4637H32.9623L34.1503 13.425H36.5413L35.1278 11.2964C35.8345 11.0532 36.3608 10.5515 36.6165 9.9281Z" fill="white"/>
<path d="M35.9395 7.3891C35.5335 7.00901 34.9771 6.76575 34.3756 6.76575H29.8493C29.8644 6.94819 29.8794 7.11544 29.9245 7.28268C29.9396 7.31309 29.9396 7.3587 29.9546 7.3891C29.9546 7.40431 29.9696 7.41951 29.9696 7.43472C30.3456 8.63582 31.4584 9.51764 32.7817 9.51764H36.6764C36.7065 9.38081 36.7215 9.24397 36.7215 9.10714C36.6914 8.42296 36.4057 7.81481 35.9395 7.3891Z" fill="white"/>
<path d="M22.8722 7.64757L22 10.7035H21.8497L20.9775 7.64757C20.8271 7.13064 20.3609 6.76575 19.8196 6.76575H17.7444V13.425H19.8346V9.48723H19.985L21.188 13.425H22.6918L23.8948 9.48723H24.0451V13.425H26.1354V6.76575H24.0451C23.4888 6.76575 23.0226 7.13064 22.8722 7.64757Z" fill="white"/>
<path d="M29.1125 6.76575H27.0223V13.425H29.1125V6.76575Z" fill="white"/>
</svg>
