<svg width="130" height="40" viewBox="0 0 130 40" fill="none" xmlns="http://www.w3.org/2000/svg">
<path d="M63.7334 18.1286C64.0788 18.3626 64.597 18.538 65.1151 18.538C65.9212 18.538 66.3818 18.1286 66.3818 17.4854C66.3818 16.9006 66.0363 16.6082 65.2303 16.2573C64.2516 15.9064 63.6182 15.3801 63.6182 14.5029C63.6182 13.5672 64.4243 12.8655 65.5757 12.8655C66.209 12.8655 66.612 12.9824 66.8999 13.1579L66.6696 13.8012C66.4969 13.6842 66.0939 13.5088 65.5182 13.5088C64.7121 13.5088 64.3667 14.0351 64.3667 14.4444C64.3667 15.0292 64.7121 15.3216 65.5757 15.614C66.612 16.0234 67.0726 16.4912 67.0726 17.4269C67.0726 18.3626 66.3818 19.1813 65 19.1813C64.4243 19.1813 63.791 19.0058 63.4455 18.7719L63.7334 18.1286Z" fill="#02797E"/>
<path d="M68.6847 17.0177C68.6847 18.0703 69.3755 18.5381 70.1816 18.5381C70.7573 18.5381 71.1027 18.4212 71.3906 18.3042L71.5057 18.889C71.2179 19.006 70.7573 19.1814 70.0664 19.1814C68.7422 19.1814 67.9362 18.3042 67.9362 16.9592C67.9362 15.6142 68.7422 14.5615 69.9513 14.5615C71.333 14.5615 71.736 15.8481 71.736 16.6083C71.736 16.7837 71.736 16.9007 71.736 17.0177H68.6847ZM70.9876 16.4913C70.9876 15.965 70.7573 15.2048 69.8937 15.2048C69.0877 15.2048 68.7422 15.965 68.6847 16.4913H70.9876Z" fill="#02797E"/>
<path d="M75.8237 18.9474C75.5935 19.0643 75.1329 19.1813 74.5571 19.1813C73.233 19.1813 72.4269 18.3041 72.4269 16.9591C72.4269 15.614 73.3481 14.6199 74.7299 14.6199C75.1904 14.6199 75.5935 14.7368 75.8237 14.8538L75.651 15.4386C75.4783 15.3216 75.1904 15.2047 74.7299 15.2047C73.7511 15.2047 73.1754 15.9649 73.1754 16.9006C73.1754 17.8947 73.8087 18.538 74.6723 18.538C75.1329 18.538 75.4207 18.421 75.651 18.3041L75.8237 18.9474Z" fill="#02797E"/>
<path d="M80.3144 17.8947C80.3144 18.3626 80.3144 18.7719 80.372 19.0643H79.6811L79.6235 18.3626C79.4508 18.7134 78.9327 19.1813 78.1842 19.1813C77.4933 19.1813 76.6873 18.7719 76.6873 17.2515V14.6784H77.4933V17.076C77.4933 17.8947 77.7812 18.4795 78.4721 18.4795C78.9902 18.4795 79.3933 18.1286 79.5084 17.7193C79.566 17.6023 79.566 17.4854 79.566 17.3099V14.6199H80.372V17.8947" fill="#02797E"/>
<path d="M81.6386 16.0817C81.6386 15.5554 81.6386 15.1461 81.5811 14.7367H82.2719L82.3295 15.6139C82.5022 15.0291 83.0204 14.6782 83.5385 14.6782C83.5961 14.6782 83.7113 14.6782 83.7688 14.6782V15.4385C83.6537 15.4385 83.5961 15.4385 83.481 15.4385C82.9052 15.4385 82.5598 15.8478 82.4447 16.4326C82.4447 16.5496 82.4447 16.6665 82.4447 16.842V19.1811H81.6386V16.0817Z" fill="#02797E"/>
<path d="M84.9778 13.9181C84.69 13.9181 84.4597 13.6842 84.4597 13.3918C84.4597 13.0994 84.69 12.8655 84.9778 12.8655C85.2657 12.8655 85.496 13.0994 85.496 13.3918C85.496 13.6842 85.3233 13.9181 84.9778 13.9181ZM85.3809 19.1228H84.6324V14.7368H85.4384V19.1228H85.3809Z" fill="#02797E"/>
<path d="M87.6262 13.6841V14.7367H88.7777V15.3215H87.6262V17.7192C87.6262 18.2455 87.7989 18.5964 88.2019 18.5964C88.4322 18.5964 88.5474 18.5964 88.6625 18.5379L88.7201 19.1227C88.5474 19.1812 88.3171 19.2396 88.0292 19.2396C87.6838 19.2396 87.3959 19.1227 87.1656 18.8888C86.9353 18.6548 86.8778 18.2455 86.8778 17.7192V15.3215H86.1869V14.7367H86.8778V13.918L87.6262 13.6841Z" fill="#02797E"/>
<path d="M90.0443 14.7367L90.9655 17.3098C91.0806 17.6022 91.1958 17.9531 91.2533 18.187C91.3109 17.9531 91.426 17.6022 91.5412 17.2513L92.4048 14.6782H93.2108L92.0018 17.8361C91.4261 19.3566 91.0806 20.1168 90.5049 20.5847C90.1019 20.9355 89.7564 21.0525 89.5261 21.111L89.3534 20.4677C89.5261 20.4092 89.814 20.2923 90.0443 20.0583C90.2746 19.8829 90.5049 19.5905 90.6776 19.1811C90.7352 19.1227 90.7352 19.0642 90.7352 19.0057C90.7352 18.9472 90.7352 18.8887 90.6776 18.8303L89.0656 14.7952H90.0443" fill="#02797E"/>
<path d="M63.7334 27.1928C64.0788 27.4268 64.597 27.6022 65.1151 27.6022C65.9212 27.6022 66.3818 27.1928 66.3818 26.5496C66.3818 25.9648 66.0363 25.6724 65.2303 25.3215C64.2516 24.9706 63.6182 24.4443 63.6182 23.5671C63.6182 22.6314 64.4243 21.9297 65.5757 21.9297C66.209 21.9297 66.612 22.0466 66.8999 22.2221L66.6696 22.8654C66.4969 22.7484 66.0939 22.573 65.5182 22.573C64.7121 22.573 64.3667 23.0993 64.3667 23.5086C64.3667 24.0934 64.7121 24.3858 65.5757 24.6782C66.612 25.0876 67.0726 25.5554 67.0726 26.4911C67.0726 27.4268 66.3818 28.2455 65 28.2455C64.4243 28.2455 63.791 28.07 63.4455 27.8361L63.7334 27.1928Z" fill="#02797E"/>
<path d="M69.0877 22.7485V23.8012H70.2392V24.386H69.0877V26.7251C69.0877 27.2515 69.2604 27.6023 69.6634 27.6023C69.8937 27.6023 70.0089 27.6023 70.124 27.5439L70.1816 28.1287C70.0089 28.1871 69.7786 28.2456 69.4907 28.2456C69.1453 28.2456 68.8574 28.1287 68.6271 27.8947C68.3968 27.6608 68.3393 27.2515 68.3393 26.7251V24.3275H67.6484V23.7427H68.3393V22.924L69.0877 22.7485Z" fill="#02797E"/>
<path d="M74.1541 27.1345C74.1541 27.5438 74.1541 27.8947 74.2117 28.1871H73.5208L73.4632 27.6608C73.2329 28.0117 72.7724 28.3041 72.1391 28.3041C71.2755 28.3041 70.8149 27.6608 70.8149 27.0175C70.8149 25.9649 71.736 25.3801 73.4057 25.3801V25.2631C73.4057 24.9123 73.2905 24.2105 72.4269 24.269C72.0239 24.269 71.6209 24.386 71.2755 24.6199L71.1027 24.0936C71.4482 23.8596 71.9663 23.7427 72.5421 23.7427C73.8663 23.7427 74.2117 24.6783 74.2117 25.5555V27.1345H74.1541ZM73.4057 25.9649C72.5421 25.9649 71.5633 26.0819 71.5633 26.959C71.5633 27.4854 71.9088 27.7193 72.3118 27.7193C72.8875 27.7193 73.233 27.3684 73.3481 26.959C73.3481 26.9006 73.4057 26.7836 73.4057 26.7251V25.9649Z" fill="#02797E"/>
<path d="M75.4207 24.9706C75.4207 24.5028 75.4207 24.1519 75.3632 23.801H76.054L76.1116 24.5028C76.3419 24.0934 76.8025 23.6841 77.5509 23.6841C78.1267 23.6841 79.1054 24.035 79.1054 25.5554V28.187H78.2994V25.6724C78.2994 24.9706 78.0115 24.3858 77.3206 24.3858C76.8025 24.3858 76.3995 24.7367 76.2843 25.2045C76.2268 25.3215 76.2268 25.4385 76.2268 25.5554V28.187H75.4207V24.9706Z" fill="#02797E"/>
<path d="M84.1143 21.7544V27.076C84.1143 27.4854 84.1143 27.8947 84.1718 28.1871H83.481L83.4234 27.4269C83.1931 27.8947 82.6749 28.3041 81.9841 28.3041C80.9477 28.3041 80.1417 27.4269 80.1417 26.0819C80.1417 24.6199 81.0629 23.7427 82.0992 23.7427C82.7901 23.7427 83.1931 24.0351 83.4234 24.386V21.7544H84.1143ZM83.3082 25.5556C83.3082 25.4386 83.3082 25.3216 83.2507 25.2047C83.1355 24.6784 82.7325 24.269 82.0992 24.269C81.2932 24.269 80.775 24.9708 80.775 25.9649C80.775 26.8421 81.2356 27.6023 82.0416 27.6023C82.5598 27.6023 83.0204 27.2515 83.1931 26.6667C83.2507 26.5497 83.2507 26.4328 83.2507 26.3158V25.5556H83.3082Z" fill="#02797E"/>
<path d="M88.4898 27.1345C88.4898 27.5438 88.4898 27.8947 88.5474 28.1871H87.8565L87.7989 27.6608C87.5686 28.0117 87.1081 28.3041 86.4748 28.3041C85.6112 28.3041 85.1506 27.6608 85.1506 27.0175C85.1506 25.9649 86.0717 25.3801 87.7414 25.3801V25.2631C87.7414 24.9123 87.6262 24.2105 86.7626 24.269C86.3596 24.269 85.9566 24.386 85.6112 24.6199L85.4384 24.0936C85.7839 23.8596 86.302 23.7427 86.8778 23.7427C88.2019 23.7427 88.5474 24.6783 88.5474 25.5555V27.1345H88.4898ZM87.6838 25.9649C86.8202 25.9649 85.8415 26.0819 85.8415 26.959C85.8415 27.4854 86.1869 27.7193 86.5899 27.7193C87.1656 27.7193 87.5111 27.3684 87.6262 26.959C87.6262 26.9006 87.6838 26.7836 87.6838 26.7251V25.9649Z" fill="#02797E"/>
<path d="M89.7564 25.1462C89.7564 24.6199 89.7564 24.2105 89.6989 23.8012H90.3897L90.4473 24.6783H90.5049C90.6776 24.0936 91.1958 23.7427 91.7139 23.7427C91.7715 23.7427 91.8291 23.7427 91.9442 23.7427V24.5029C91.8291 24.5029 91.7715 24.5029 91.6563 24.5029C91.0806 24.5029 90.7352 24.9123 90.62 25.4971C90.62 25.614 90.62 25.731 90.62 25.9064V28.2456H89.814L89.7564 25.1462Z" fill="#02797E"/>
<path d="M96.3198 21.7544V27.076C96.3198 27.4854 96.3198 27.8947 96.3773 28.1871H95.6864L95.6289 27.4269C95.3986 27.8947 94.8804 28.3041 94.132 28.3041C93.0957 28.3041 92.2896 27.4269 92.2896 26.0819C92.2896 24.6199 93.1532 23.7427 94.2471 23.7427C94.938 23.7427 95.341 24.0351 95.5713 24.386V21.7544H96.3198ZM95.5713 25.5556C95.5713 25.4386 95.5713 25.3216 95.5137 25.2047C95.3986 24.6784 94.938 24.269 94.3623 24.269C93.5562 24.269 93.0957 24.9708 93.0957 25.9649C93.0957 26.8421 93.5562 27.6023 94.3623 27.6023C94.8804 27.6023 95.3986 27.2515 95.5137 26.6667C95.5137 26.5497 95.5713 26.4328 95.5713 26.3158V25.5556Z" fill="#02797E"/>
<path d="M97.5288 27.3683C97.7591 27.5437 98.1621 27.6607 98.5651 27.6607C99.1408 27.6607 99.3711 27.3683 99.3711 27.0174C99.3711 26.6081 99.1408 26.4326 98.5651 26.1987C97.7591 25.9063 97.4136 25.4969 97.4136 24.9706C97.4136 24.2689 97.9894 23.6841 98.9106 23.6841C99.3711 23.6841 99.7166 23.801 99.9469 23.9765L99.7741 24.5613C99.6014 24.4443 99.3136 24.3274 98.9106 24.3274C98.45 24.3274 98.2197 24.6198 98.2197 24.9122C98.2197 25.263 98.45 25.4385 99.0257 25.6724C99.7741 25.9648 100.177 26.3157 100.177 27.0174C100.177 27.7776 99.6014 28.3624 98.5651 28.3624C98.1045 28.3624 97.6439 28.2455 97.3561 28.07L97.5288 27.3683Z" fill="#02797E"/>
<path d="M107.316 28.0117C107.028 28.1286 106.453 28.3041 105.704 28.3041C104.035 28.3041 102.71 27.193 102.71 25.2047C102.71 23.2748 103.977 21.9883 105.877 21.9883C106.625 21.9883 107.086 22.1637 107.316 22.2807L107.143 22.924C106.856 22.807 106.453 22.69 105.934 22.69C104.495 22.69 103.574 23.6257 103.574 25.2047C103.574 26.7251 104.438 27.6608 105.877 27.6608C106.337 27.6608 106.856 27.5438 107.143 27.4269L107.316 28.0117Z" fill="#02797E"/>
<path d="M109.907 28.304C108.756 28.304 107.834 27.4268 107.834 26.0233C107.834 24.5613 108.813 23.6841 109.965 23.6841C111.231 23.6841 112.037 24.6198 112.037 25.9063C112.037 27.5437 110.943 28.304 109.907 28.304ZM109.907 27.6607C110.655 27.6607 111.231 26.9589 111.231 25.9648C111.231 25.2046 110.886 24.2689 109.907 24.2689C108.986 24.2689 108.583 25.1461 108.583 25.9648C108.64 26.9589 109.159 27.6607 109.907 27.6607Z" fill="#02797E"/>
<path d="M116.643 26.9589C116.643 27.4268 116.643 27.8361 116.701 28.1285H116.01L115.952 27.4268C115.779 27.7777 115.261 28.2455 114.513 28.2455C113.822 28.2455 113.016 27.8361 113.016 26.3157V23.7426H113.822V26.1402C113.822 26.9589 114.052 27.5437 114.801 27.5437C115.319 27.5437 115.664 27.1929 115.837 26.7835C115.895 26.6665 115.895 26.5496 115.895 26.3741V23.6841H116.701V26.9589" fill="#02797E"/>
<path d="M117.967 24.9706C117.967 24.5028 117.967 24.1519 117.91 23.801H118.601L118.658 24.5028C118.888 24.0934 119.349 23.6841 120.097 23.6841C120.673 23.6841 121.652 24.035 121.652 25.5554V28.187H120.846V25.6724C120.846 24.9706 120.558 24.3858 119.867 24.3858C119.349 24.3858 118.946 24.7367 118.831 25.2045C118.773 25.3215 118.773 25.4385 118.773 25.5554V28.187H117.967V24.9706Z" fill="#02797E"/>
<path d="M126.027 28.0116C125.797 28.1285 125.394 28.2455 124.761 28.2455C123.437 28.2455 122.631 27.3683 122.631 26.0233C122.631 24.6782 123.552 23.6841 124.934 23.6841C125.394 23.6841 125.797 23.801 126.027 23.918L125.855 24.5028C125.682 24.3858 125.394 24.2689 124.934 24.2689C123.955 24.2689 123.379 25.0291 123.379 25.9648C123.379 26.9589 124.012 27.6022 124.876 27.6022C125.337 27.6022 125.624 27.4853 125.855 27.3683L126.027 28.0116Z" fill="#02797E"/>
<path d="M127.294 22.9823C127.006 22.9823 126.776 22.7484 126.776 22.456C126.776 22.1636 127.006 21.9297 127.294 21.9297C127.582 21.9297 127.812 22.1636 127.812 22.456C127.812 22.7484 127.64 22.9823 127.294 22.9823ZM127.697 28.187H126.891V23.801H127.697V28.187Z" fill="#02797E"/>
<path d="M129.827 21.7544H129.021V28.1871H129.827V21.7544Z" fill="#02797E"/>
<path d="M59.7033 25.2632L13.4721 40L0 2.74854L48.5341 0L59.7033 25.2632Z" fill="#02797E"/>
<path d="M24.7564 17.7777C24.7564 18.7134 24.5261 19.5321 24.1231 20.2923C23.7201 20.9941 23.1444 21.6374 22.3959 22.1052C21.6475 22.573 20.7263 22.9239 19.69 23.1578C18.6537 23.3917 17.5022 23.5087 16.178 23.5087H15.2569V28.304H9.26926V12.3391H16.2932C18.9415 12.3391 21.0142 12.8069 22.5111 13.6841C24.008 14.5613 24.7564 15.9648 24.7564 17.7777ZM18.9991 17.8362C18.9991 16.4327 17.9628 15.7309 15.9477 15.7309H15.1993V19.9999H15.8902C16.8689 19.9999 17.6749 19.8245 18.1931 19.4736C18.7112 19.1812 18.9991 18.5964 18.9991 17.8362Z" fill="white"/>
<path d="M39.6103 28.3041C38.6891 28.4795 37.6528 28.5965 36.4438 28.5965C34.7742 28.5965 33.2773 28.421 32.0106 28.0117C30.6865 27.6023 29.5926 27.076 28.6714 26.3742C27.7502 25.6725 27.0594 24.7953 26.5988 23.8011C26.1382 22.7485 25.9079 21.6374 25.9079 20.4093C25.9079 19.1812 26.1382 18.0701 26.6563 17.0175C27.1745 16.0234 27.8654 15.1462 28.7866 14.3859C29.7077 13.6842 30.8016 13.0994 32.0682 12.69C33.3348 12.2807 34.7166 12.1052 36.2135 12.1052C37.3649 12.1052 38.4588 12.1637 39.4376 12.3391C40.4163 12.5731 40.4163 12.5731 41.1648 12.8655V17.1345C40.589 16.7836 39.8982 16.4912 39.1497 16.3158C38.4013 16.0818 37.5952 15.9649 36.7892 15.9649C35.4075 15.9649 34.3136 16.3742 33.45 17.076C32.5864 17.8362 32.1834 18.8888 32.1834 20.3508C32.1834 21.0526 32.2985 21.6959 32.5864 22.2807C32.8742 22.807 33.2197 23.2748 33.6803 23.6257C34.1408 23.9766 34.659 24.269 35.2923 24.4444C35.9256 24.6198 36.5589 24.7368 37.2498 24.7368C37.9407 24.7368 38.6891 24.6783 39.38 24.5029C40.0709 24.3274 40.8193 24.152 41.5678 23.8011V27.8362C40.6466 28.0701 40.5315 28.1286 39.6103 28.3041Z" fill="white"/>
<path d="M50.0886 12.3391H44.0434V28.3625H50.0886V12.3391Z" fill="white"/>
<path d="M50.7219 7.31004C50.7219 8.36267 50.3764 9.23987 49.6855 9.82466C48.9947 10.4095 48.1311 10.7603 47.0948 10.7603C46.0584 10.7603 45.1948 10.4679 44.504 9.82466C43.8131 9.23987 43.4677 8.36267 43.4677 7.31004C43.4677 6.19893 43.8131 5.38022 44.504 4.73694C45.1948 4.09367 46.0584 3.80127 47.0948 3.80127C48.1311 3.80127 48.9947 4.09367 49.6855 4.73694C50.3764 5.32174 50.7219 6.19893 50.7219 7.31004Z" fill="white"/>
<path d="M130 14.3275C130 15.3217 129.194 16.1404 128.158 16.1404C127.121 16.1404 126.315 15.3217 126.315 14.3275C126.315 13.3334 127.121 12.5146 128.158 12.5146C129.194 12.5146 130 13.3334 130 14.3275ZM126.891 14.3275C126.891 15.0877 127.467 15.6725 128.158 15.6725C128.906 15.6725 129.424 15.0877 129.424 14.3275C129.424 13.5673 128.849 12.9825 128.1 12.9825C127.409 12.9825 126.891 13.5673 126.891 14.3275ZM127.927 15.2047H127.409V13.5088C127.524 13.5088 127.812 13.4503 128.158 13.4503C128.503 13.4503 128.676 13.5088 128.791 13.5673C128.906 13.6258 128.964 13.7427 128.964 13.9182C128.964 14.0936 128.791 14.2106 128.561 14.269C128.733 14.3275 128.849 14.4445 128.906 14.6784C128.964 14.9123 128.964 15.0293 129.021 15.0877H128.446C128.388 15.0293 128.388 14.8538 128.33 14.7369C128.273 14.5614 128.215 14.503 128.042 14.503H127.87V15.2047H127.927ZM127.985 14.269H128.158C128.33 14.269 128.446 14.2106 128.446 14.0936C128.446 13.9766 128.33 13.8597 128.158 13.8597C128.1 13.8597 128.043 13.8597 127.985 13.8597V14.269Z" fill="#02797E"/>
</svg>
