<svg width="40" height="40" viewBox="0 0 40 40" fill="none" xmlns="http://www.w3.org/2000/svg">
<path d="M40 0H0V40H40V0Z" fill="white"/>
<path d="M40 20H0V40H40V20Z" fill="#1A1F71"/>
<path d="M15.8185 5.59594L12.0407 14.5656H9.59629L7.73771 7.39392C7.61649 6.94948 7.53569 6.78786 7.19225 6.60604C6.6266 6.30301 5.7175 6.02018 4.90942 5.83837L4.97003 5.57574H8.92963C9.43468 5.57574 9.87912 5.91917 10.0003 6.48483L10.97 11.6768L13.3943 5.55554H15.8185V5.59594ZM25.4347 11.6363C25.4549 9.27271 22.1619 9.1313 22.1822 8.08079C22.1822 7.75756 22.5054 7.41412 23.1721 7.33332C23.4953 7.29291 24.4246 7.25251 25.4549 7.73736L25.8589 5.83837C25.2933 5.63635 24.5862 5.43433 23.6771 5.43433C21.3741 5.43433 19.7579 6.64645 19.7579 8.40402C19.7377 9.69695 20.9094 10.4242 21.7983 10.8485C22.7074 11.2929 23.0104 11.5757 23.0104 11.9596C23.0104 12.5656 22.2832 12.8283 21.6165 12.8485C20.4448 12.8687 19.7781 12.5252 19.2327 12.2828L18.8084 14.2424C19.3539 14.4848 20.364 14.7071 21.3943 14.7273C23.8387 14.7071 25.4347 13.5151 25.4347 11.6363ZM31.4953 14.5656H33.6367L31.7579 5.57574H29.7781C29.3337 5.57574 28.9498 5.83837 28.7882 6.24241L25.2933 14.5656H27.7377L28.2226 13.2323H31.2125L31.4953 14.5656ZM28.9094 11.3939L30.1417 8.02019L30.8488 11.3939H28.9094ZM19.1316 5.59594L17.2125 14.5858H14.8892L16.8084 5.59594H19.1316Z" fill="#1A1F71"/>
<path d="M9.31268 31.0707C9.5753 31.2323 9.97934 31.3535 10.4036 31.3535C10.9288 31.3535 11.2319 31.1111 11.2319 30.7273C11.2319 30.3838 11.0096 30.1818 10.4238 29.9798C9.67631 29.7172 9.19147 29.3131 9.19147 28.6666C9.19147 27.9192 9.81773 27.3535 10.8076 27.3535C11.2925 27.3535 11.6561 27.4545 11.8985 27.5757L11.6965 28.2424C11.5349 28.1616 11.2117 28.0202 10.7874 28.0202C10.2622 28.0202 10.04 28.303 10.04 28.5656C10.04 28.9091 10.3026 29.0707 10.9086 29.3131C11.6965 29.6161 12.0804 30.0202 12.0804 30.6666C12.0804 31.3939 11.5349 32.0202 10.3632 32.0202C9.87833 32.0202 9.37328 31.8788 9.13086 31.7374L9.31268 31.0707Z" fill="white"/>
<path d="M15.2925 29.9596H13.5753V31.2929H15.4945V31.9798H12.7672V27.4343H15.4137V28.1212H13.5955V29.2929H15.3127V29.9596H15.2925Z" fill="white"/>
<path d="M19.4137 31.8384C19.2117 31.9394 18.7874 32.0404 18.242 32.0404C16.8076 32.0404 15.9187 31.1314 15.9187 29.7576C15.9187 28.2627 16.9692 27.3738 18.343 27.3738C18.8884 27.3738 19.2723 27.4748 19.4339 27.5758L19.2521 28.2425C19.0298 28.1415 18.7268 28.0606 18.3632 28.0606C17.4339 28.0606 16.7672 28.6465 16.7672 29.7374C16.7672 30.7273 17.3531 31.3738 18.343 31.3738C18.6662 31.3738 19.0298 31.3132 19.2521 31.2122L19.4137 31.8384Z" fill="white"/>
<path d="M20.8682 27.4343V30.0808C20.8682 30.9697 21.2318 31.3737 21.7975 31.3737C22.4036 31.3737 22.747 30.9697 22.747 30.0808V27.4343H23.5753V30.0202C23.5753 31.4141 22.848 32.0404 21.7571 32.0404C20.7066 32.0404 20.0197 31.4545 20.0197 30.0202V27.4141H20.8682V27.4343Z" fill="white"/>
<path d="M24.4645 27.5151C24.7877 27.4545 25.2322 27.4141 25.717 27.4141C26.3635 27.4141 26.8079 27.5151 27.111 27.7778C27.3534 27.9798 27.4948 28.303 27.4948 28.6869C27.4948 29.2727 27.0908 29.6768 26.6665 29.8182V29.8384C26.9898 29.9596 27.1918 30.2828 27.2928 30.7071C27.4342 31.2727 27.5554 31.798 27.6564 31.9798H26.8079C26.7473 31.8384 26.6261 31.4747 26.5049 30.9091C26.3635 30.3232 26.1615 30.1212 25.6968 30.1212H25.2726V31.9798H24.4443V27.5151H24.4645ZM25.2928 29.5151H25.7776C26.3433 29.5151 26.6867 29.2121 26.6867 28.7677C26.6867 28.2828 26.3433 28.0404 25.7978 28.0404C25.5352 28.0404 25.3736 28.0606 25.2928 28.0808V29.5151Z" fill="white"/>
<path d="M30.7672 29.9596H29.05V31.2929H30.9692V31.9798H28.2217V27.4343H30.8682V28.1212H29.05V29.2929H30.7672V29.9596Z" fill="white"/>
</svg>
